<?xml version="1.0" standalone="no"?><!DOCTYPE svg PUBLIC "-//W3C//DTD SVG 1.1//EN" "http://www.w3.org/Graphics/SVG/1.1/DTD/svg11.dtd"><svg t="1555248490975" class="icon" style="" viewBox="0 0 1024 1024" version="1.1" xmlns="http://www.w3.org/2000/svg" p-id="2101" xmlns:xlink="http://www.w3.org/1999/xlink" width="200" height="200"><defs></defs><path d="M897.996 542H128.004c-16.569 0-30-13.431-30-30 0-16.569 13.431-30 30-30h769.991c16.569 0 30 13.431 30 30 0.001 16.569-13.431 30-29.999 30z" fill="#bfbfbf" p-id="2102"></path><path d="M897.996 928.236c-16.569 0-30-13.431-30-30v-228.33c0-16.569 13.431-30 30-30 16.569 0 30 13.431 30 30v228.33c0 16.568-13.432 30-30 30zM128.025 928.236c-16.569 0-30-13.431-30-30v-228.33c0-16.569 13.431-30 30-30 16.569 0 30 13.431 30 30v228.33c0 16.568-13.432 30-30 30z" fill="#bfbfbf" p-id="2103"></path><path d="M927.996 898.236c0 16.569-13.431 30-30 30H128.004c-16.569 0-30-13.431-30-30 0-16.569 13.431-30 30-30h769.991c16.569 0 30.001 13.431 30.001 30z" fill="#bfbfbf" p-id="2104"></path><path d="M98.004 128.154c0-16.569 13.431-30 30-30h769.991c16.569 0 30 13.431 30 30 0 16.569-13.431 30-30 30H128.004c-16.568 0-30-13.432-30-30z" fill="#bfbfbf" p-id="2105"></path><path d="M128.004 98.154c16.569 0 30 13.431 30 30v228.33c0 16.569-13.431 30-30 30-16.569 0-30-13.431-30-30v-228.33c0-16.569 13.432-30 30-30zM898.034 98.169c16.569 0 30 13.431 30 30v228.33c0 16.569-13.431 30-30 30-16.568 0-30-13.431-30-30v-228.33c0-16.569 13.431-30 30-30z" fill="#bfbfbf" p-id="2106"></path></svg>